<svg class="powerimo" width="24" height="24" fill="none" stroke="currentColor" stroke-linecap="round" stroke-linejoin="round" stroke-width="2" version="1.1" viewBox="0 0 24 24" xmlns="http://www.w3.org/2000/svg"><path d="M0 0h24v24H0z" fill="none" stroke="none"/><path d="m19.875 6.27a2.225 2.225 0 0 1 1.125 1.948v7.284c0 0.809-0.443 1.555-1.158 1.948l-6.75 4.27a2.269 2.269 0 0 1-2.184 0l-6.75-4.27a2.225 2.225 0 0 1-1.158-1.948v-7.285c0-0.809 0.443-1.554 1.158-1.947l6.75-3.98a2.33 2.33 0 0 1 2.25 0l6.75 3.98h-0.033z" fill="#fff"/><path d="m10 12h2a2 2 0 1 0 0-4h-2v8"/></svg>
